<svg id="visual" viewBox="0 0 675 900" width="675" height="900" xmlns="http://www.w3.org/2000/svg" xmlns:xlink="http://www.w3.org/1999/xlink" version="1.1"><g stroke-width="1" stroke-linejoin="bevel"><path d="M300.3 449L380.7 452L367.7 366Z" fill="#3e096e" stroke="#3e096e"></path><path d="M367.7 366L288.3 347L300.3 449Z" fill="#3e096e" stroke="#3e096e"></path><path d="M197.9 535L307.3 540L300.3 449Z" fill="#4f1288" stroke="#4f1288"></path><path d="M300.3 449L307.3 540L380.7 452Z" fill="#29014e" stroke="#29014e"></path><path d="M396.7 539L467.1 461L380.7 452Z" fill="#490f7f" stroke="#490f7f"></path><path d="M380.7 452L467.1 461L367.7 366Z" fill="#4f1288" stroke="#4f1288"></path><path d="M307.3 540L396.7 539L380.7 452Z" fill="#2e0356" stroke="#2e0356"></path><path d="M288.3 347L203.9 365L300.3 449Z" fill="#541591" stroke="#541591"></path><path d="M490.1 360L375.7 271L367.7 366Z" fill="#33045e" stroke="#33045e"></path><path d="M367.7 366L375.7 271L288.3 347Z" fill="#2e0356" stroke="#2e0356"></path><path d="M288.3 347L206.9 265L203.9 365Z" fill="#5a189a" stroke="#5a189a"></path><path d="M203.9 365L197.9 459L300.3 449Z" fill="#5a189a" stroke="#5a189a"></path><path d="M467.1 461L490.1 360L367.7 366Z" fill="#541591" stroke="#541591"></path><path d="M375.7 271L282.3 262L288.3 347Z" fill="#390666" stroke="#390666"></path><path d="M396.7 539L465.1 533L467.1 461Z" fill="#240046" stroke="#240046"></path><path d="M467.1 461L588.6 469L490.1 360Z" fill="#33045e" stroke="#33045e"></path><path d="M197.9 459L197.9 535L300.3 449Z" fill="#5a189a" stroke="#5a189a"></path><path d="M282.3 262L206.9 265L288.3 347Z" fill="#5a189a" stroke="#5a189a"></path><path d="M203.9 365L96.4 351L197.9 459Z" fill="#240046" stroke="#240046"></path><path d="M197.9 535L289.3 611L307.3 540Z" fill="#2e0356" stroke="#2e0356"></path><path d="M307.3 540L373.7 624L396.7 539Z" fill="#3e096e" stroke="#3e096e"></path><path d="M396.7 539L373.7 624L465.1 533Z" fill="#541591" stroke="#541591"></path><path d="M490.1 360L494.1 267L375.7 271Z" fill="#240046" stroke="#240046"></path><path d="M375.7 271L308.3 182L282.3 262Z" fill="#3e096e" stroke="#3e096e"></path><path d="M289.3 611L373.7 624L307.3 540Z" fill="#240046" stroke="#240046"></path><path d="M386.7 179L308.3 182L375.7 271Z" fill="#33045e" stroke="#33045e"></path><path d="M282.3 262L208.9 175L206.9 265Z" fill="#490f7f" stroke="#490f7f"></path><path d="M494.1 267L386.7 179L375.7 271Z" fill="#3e096e" stroke="#3e096e"></path><path d="M574.6 536L467.1 461L465.1 533Z" fill="#541591" stroke="#541591"></path><path d="M574.6 536L588.6 469L467.1 461Z" fill="#33045e" stroke="#33045e"></path><path d="M490.1 360L564.6 272L494.1 267Z" fill="#33045e" stroke="#33045e"></path><path d="M100.4 250L96.4 351L206.9 265Z" fill="#29014e" stroke="#29014e"></path><path d="M206.9 265L96.4 351L203.9 365Z" fill="#430c77" stroke="#430c77"></path><path d="M197.9 459L90.4 541L197.9 535Z" fill="#490f7f" stroke="#490f7f"></path><path d="M588.6 469L588.6 356L490.1 360Z" fill="#490f7f" stroke="#490f7f"></path><path d="M197.9 535L175.9 613L289.3 611Z" fill="#430c77" stroke="#430c77"></path><path d="M290.3 711L397.7 708L373.7 624Z" fill="#240046" stroke="#240046"></path><path d="M90.4 541L175.9 613L197.9 535Z" fill="#3e096e" stroke="#3e096e"></path><path d="M492.1 642L574.6 536L465.1 533Z" fill="#390666" stroke="#390666"></path><path d="M588.6 356L564.6 272L490.1 360Z" fill="#240046" stroke="#240046"></path><path d="M494.1 267L483.1 174L386.7 179Z" fill="#240046" stroke="#240046"></path><path d="M96.4 351L78.4 463L197.9 459Z" fill="#4f1288" stroke="#4f1288"></path><path d="M397.7 708L492.1 642L373.7 624Z" fill="#5a189a" stroke="#5a189a"></path><path d="M373.7 624L492.1 642L465.1 533Z" fill="#430c77" stroke="#430c77"></path><path d="M271.3 96L208.9 175L308.3 182Z" fill="#29014e" stroke="#29014e"></path><path d="M308.3 182L208.9 175L282.3 262Z" fill="#4f1288" stroke="#4f1288"></path><path d="M561.6 190L483.1 174L494.1 267Z" fill="#240046" stroke="#240046"></path><path d="M383.7 73L271.3 96L308.3 182Z" fill="#29014e" stroke="#29014e"></path><path d="M78.4 463L90.4 541L197.9 459Z" fill="#2e0356" stroke="#2e0356"></path><path d="M208.9 175L100.4 250L206.9 265Z" fill="#3e096e" stroke="#3e096e"></path><path d="M0 376L0 438L78.4 463Z" fill="#490f7f" stroke="#490f7f"></path><path d="M290.3 711L373.7 624L289.3 611Z" fill="#29014e" stroke="#29014e"></path><path d="M183.9 704L290.3 711L289.3 611Z" fill="#3e096e" stroke="#3e096e"></path><path d="M183.9 704L289.3 611L175.9 613Z" fill="#29014e" stroke="#29014e"></path><path d="M564.6 272L561.6 190L494.1 267Z" fill="#29014e" stroke="#29014e"></path><path d="M675 195L561.6 190L564.6 272Z" fill="#4f1288" stroke="#4f1288"></path><path d="M570.6 705L582.6 630L492.1 642Z" fill="#430c77" stroke="#430c77"></path><path d="M492.1 642L582.6 630L574.6 536Z" fill="#430c77" stroke="#430c77"></path><path d="M675 466L675 375L588.6 469Z" fill="#4f1288" stroke="#4f1288"></path><path d="M90.4 541L106.4 636L175.9 613Z" fill="#4f1288" stroke="#4f1288"></path><path d="M383.7 73L386.7 179L483.1 174Z" fill="#33045e" stroke="#33045e"></path><path d="M383.7 73L308.3 182L386.7 179Z" fill="#2e0356" stroke="#2e0356"></path><path d="M208.9 175L97.4 169L100.4 250Z" fill="#4f1288" stroke="#4f1288"></path><path d="M106.4 636L183.9 704L175.9 613Z" fill="#29014e" stroke="#29014e"></path><path d="M397.7 708L478.1 715L492.1 642Z" fill="#240046" stroke="#240046"></path><path d="M375.7 794L478.1 715L397.7 708Z" fill="#5a189a" stroke="#5a189a"></path><path d="M588.6 469L675 375L588.6 356Z" fill="#2e0356" stroke="#2e0356"></path><path d="M588.6 356L675 265L564.6 272Z" fill="#5a189a" stroke="#5a189a"></path><path d="M675 466L588.6 469L675 523Z" fill="#29014e" stroke="#29014e"></path><path d="M675 523L588.6 469L574.6 536Z" fill="#33045e" stroke="#33045e"></path><path d="M78.4 463L0 536L90.4 541Z" fill="#33045e" stroke="#33045e"></path><path d="M90.4 541L0 618L106.4 636Z" fill="#4f1288" stroke="#4f1288"></path><path d="M0 376L78.4 463L96.4 351Z" fill="#5a189a" stroke="#5a189a"></path><path d="M498.1 98L383.7 73L483.1 174Z" fill="#240046" stroke="#240046"></path><path d="M0 266L0 376L96.4 351Z" fill="#430c77" stroke="#430c77"></path><path d="M186.9 103L97.4 169L208.9 175Z" fill="#4f1288" stroke="#4f1288"></path><path d="M100.4 250L0 266L96.4 351Z" fill="#430c77" stroke="#430c77"></path><path d="M271.3 96L186.9 103L208.9 175Z" fill="#4f1288" stroke="#4f1288"></path><path d="M105.4 81L186.9 103L201.9 0Z" fill="#490f7f" stroke="#490f7f"></path><path d="M582.6 630L675 523L574.6 536Z" fill="#541591" stroke="#541591"></path><path d="M558.6 97L498.1 98L483.1 174Z" fill="#4f1288" stroke="#4f1288"></path><path d="M0 438L0 536L78.4 463Z" fill="#541591" stroke="#541591"></path><path d="M675 375L675 265L588.6 356Z" fill="#541591" stroke="#541591"></path><path d="M561.6 190L558.6 97L483.1 174Z" fill="#240046" stroke="#240046"></path><path d="M478.1 715L570.6 705L492.1 642Z" fill="#2e0356" stroke="#2e0356"></path><path d="M582.6 630L675 636L675 523Z" fill="#29014e" stroke="#29014e"></path><path d="M0 163L0 266L100.4 250Z" fill="#33045e" stroke="#33045e"></path><path d="M0 618L100.4 706L106.4 636Z" fill="#4f1288" stroke="#4f1288"></path><path d="M106.4 636L100.4 706L183.9 704Z" fill="#33045e" stroke="#33045e"></path><path d="M288.3 826L375.7 794L290.3 711Z" fill="#29014e" stroke="#29014e"></path><path d="M202.9 805L290.3 711L183.9 704Z" fill="#2e0356" stroke="#2e0356"></path><path d="M290.3 711L375.7 794L397.7 708Z" fill="#490f7f" stroke="#490f7f"></path><path d="M478.1 715L493.1 803L570.6 705Z" fill="#5a189a" stroke="#5a189a"></path><path d="M675 98L558.6 97L561.6 190Z" fill="#541591" stroke="#541591"></path><path d="M396.7 0L299.3 0L383.7 73Z" fill="#390666" stroke="#390666"></path><path d="M0 536L0 618L90.4 541Z" fill="#240046" stroke="#240046"></path><path d="M675 265L675 195L564.6 272Z" fill="#3e096e" stroke="#3e096e"></path><path d="M570.6 705L675 636L582.6 630Z" fill="#3e096e" stroke="#3e096e"></path><path d="M186.9 103L105.4 81L97.4 169Z" fill="#240046" stroke="#240046"></path><path d="M97.4 169L0 163L100.4 250Z" fill="#490f7f" stroke="#490f7f"></path><path d="M201.9 0L186.9 103L271.3 96Z" fill="#3e096e" stroke="#3e096e"></path><path d="M113.4 825L183.9 704L100.4 706Z" fill="#5a189a" stroke="#5a189a"></path><path d="M113.4 825L202.9 805L183.9 704Z" fill="#2e0356" stroke="#2e0356"></path><path d="M202.9 805L288.3 826L290.3 711Z" fill="#29014e" stroke="#29014e"></path><path d="M396.7 0L383.7 73L494.1 0Z" fill="#29014e" stroke="#29014e"></path><path d="M383.7 73L299.3 0L271.3 96Z" fill="#390666" stroke="#390666"></path><path d="M375.7 794L493.1 803L478.1 715Z" fill="#240046" stroke="#240046"></path><path d="M570.6 705L675 730L675 636Z" fill="#33045e" stroke="#33045e"></path><path d="M403.7 900L493.1 803L375.7 794Z" fill="#4f1288" stroke="#4f1288"></path><path d="M494.1 0L383.7 73L498.1 98Z" fill="#33045e" stroke="#33045e"></path><path d="M0 103L0 163L97.4 169Z" fill="#541591" stroke="#541591"></path><path d="M299.3 0L201.9 0L271.3 96Z" fill="#5a189a" stroke="#5a189a"></path><path d="M105.4 81L0 103L97.4 169Z" fill="#430c77" stroke="#430c77"></path><path d="M572.6 0L494.1 0L558.6 97Z" fill="#490f7f" stroke="#490f7f"></path><path d="M558.6 97L494.1 0L498.1 98Z" fill="#3e096e" stroke="#3e096e"></path><path d="M675 195L675 98L561.6 190Z" fill="#541591" stroke="#541591"></path><path d="M582.6 812L675 730L570.6 705Z" fill="#29014e" stroke="#29014e"></path><path d="M88.4 0L0 103L105.4 81Z" fill="#3e096e" stroke="#3e096e"></path><path d="M0 618L0 725L100.4 706Z" fill="#2e0356" stroke="#2e0356"></path><path d="M568.6 900L582.6 812L493.1 803Z" fill="#3e096e" stroke="#3e096e"></path><path d="M493.1 803L582.6 812L570.6 705Z" fill="#490f7f" stroke="#490f7f"></path><path d="M0 725L113.4 825L100.4 706Z" fill="#2e0356" stroke="#2e0356"></path><path d="M202.9 805L270.3 900L288.3 826Z" fill="#240046" stroke="#240046"></path><path d="M675 98L572.6 0L558.6 97Z" fill="#430c77" stroke="#430c77"></path><path d="M201.9 0L88.4 0L105.4 81Z" fill="#490f7f" stroke="#490f7f"></path><path d="M270.3 900L403.7 900L288.3 826Z" fill="#29014e" stroke="#29014e"></path><path d="M288.3 826L403.7 900L375.7 794Z" fill="#5a189a" stroke="#5a189a"></path><path d="M186.9 900L270.3 900L202.9 805Z" fill="#490f7f" stroke="#490f7f"></path><path d="M403.7 900L493.1 900L493.1 803Z" fill="#430c77" stroke="#430c77"></path><path d="M582.6 812L675 811L675 730Z" fill="#33045e" stroke="#33045e"></path><path d="M83.4 900L186.9 900L113.4 825Z" fill="#3e096e" stroke="#3e096e"></path><path d="M113.4 825L186.9 900L202.9 805Z" fill="#29014e" stroke="#29014e"></path><path d="M675 900L675 811L582.6 812Z" fill="#2e0356" stroke="#2e0356"></path><path d="M0 725L0 820L113.4 825Z" fill="#33045e" stroke="#33045e"></path><path d="M675 98L675 0L572.6 0Z" fill="#29014e" stroke="#29014e"></path><path d="M493.1 900L568.6 900L493.1 803Z" fill="#33045e" stroke="#33045e"></path><path d="M88.4 0L0 0L0 103Z" fill="#490f7f" stroke="#490f7f"></path><path d="M0 820L83.4 900L113.4 825Z" fill="#4f1288" stroke="#4f1288"></path><path d="M568.6 900L675 900L582.6 812Z" fill="#5a189a" stroke="#5a189a"></path><path d="M0 820L0 900L83.4 900Z" fill="#3e096e" stroke="#3e096e"></path></g></svg>